# xmcd
#
# Track frame offsets: 
#        187
#        10389
#        25859
#        39267
#        50587
#        63899
#        74894
#        87417
#        102142
#        114322
#        130054
#        145352
#
# Disc length: 2066 seconds
#
# Revision: 0
# Processed by: cddbd v1.5.2PL0 Copyright (c) Steve Scherf et al.
# Submitted via: ExactAudioCopy v0.95b4
#
DISCID=a408100c
DTITLE=Lena Horne - Give The Lady What She Wants
DYEAR=1993
DGENRE=Swing
TTITLE0=Diamonds Are A Girl's Best Friends
TTITLE1=People Will Say We're In Love
TTITLE2=Just In Time
TTITLE3=Honey In The Honeycomb
TTITLE4=You'd Better Know It
TTITLE5=Get Out Of Town
TTITLE6=Baubles, Bangles And Beads
TTITLE7=Bewitched
TTITLE8=At Long, At Last
TTITLE9=Speak Low
TTITLE10=Love
TTITLE11=Pet's Put Out the Lights and Go to Sleep
EXTD=
EXTT0=
EXTT1=
EXTT2=
EXTT3=
EXTT4=
EXTT5=
EXTT6=
EXTT7=
EXTT8=
EXTT9=
EXTT10=
EXTT11=
PLAYORDER=
